# xmcd
#
# Track frame offsets: 
#        150
#        10952
#        31283
#        44975
#        58033
#        73030
#        83317
#        98201
#        116897
#        138641
#        159655
#
# Disc length: 2321 seconds
#
# Revision: 2
# Processed by: cddbd v1.5.2PL0 Copyright (c) Steve Scherf et al.
# Submitted via: ExactAudioCopy v0.99pb5
#
DISCID=99090f0b
DTITLE=The Heartland Consort - The Heartland Consort
DYEAR=1983
DGENRE=Jazz
TTITLE0=Watch Out
TTITLE1=Sweet Remembrance
TTITLE2=Iowa Beans
TTITLE3=Country Lane
TTITLE4=First Street West
TTITLE5=Sea Shore
TTITLE6=Missy
TTITLE7=Kincaid
TTITLE8=Palm Sunday
TTITLE9=Satin Touch
TTITLE10=Sleazy People
EXTD=YEAR: 1983
EXTT0=
EXTT1=
EXTT2=
EXTT3=
EXTT4=
EXTT5=
EXTT6=
EXTT7=
EXTT8=
EXTT9=
EXTT10=
PLAYORDER=
